<?xml version="1.0" encoding="utf-8"?><svg version="1.1" id="Layer_1" xmlns="http://www.w3.org/2000/svg" xmlns:xlink="http://www.w3.org/1999/xlink" x="0px" y="0px" viewBox="0 0 122.88 90.81" style="enable-background:new 0 0 122.88 90.81" xml:space="preserve"><style type="text/css">.st0{fill-rule:evenodd;clip-rule:evenodd;}</style><g><path class="st0" d="M12.54,11.75h59.52c1.87,0,3.39,1.53,3.39,3.39v26.78c0,1.86-1.53,3.39-3.39,3.39H12.54 c-1.86,0-3.39-1.53-3.39-3.39V15.14C9.15,13.28,10.68,11.75,12.54,11.75L12.54,11.75z M118.92,16.32l-1.12,0.97l4.63,4.63l0,0 c0.52,0.52,0.53,1.36,0.01,1.89l-4.59,4.72l4.44,4.62c0.52,0.5,0.55,1.34,0.05,1.87l-4.53,4.91l4.58,4.45 c0.03,0.03,0.06,0.05,0.09,0.08c0.53,0.53,0.53,1.38,0,1.9l-4.67,4.67l4.58,4.81l0,0c0.5,0.53,0.49,1.36-0.03,1.88l-4.62,4.58 l1.1,0.95c0.33,0.25,0.55,0.64,0.55,1.08c0,0.74-0.6,1.35-1.35,1.35H84.61v16.86c0,2.27-0.93,4.34-2.43,5.84 c-1.5,1.5-3.57,2.43-5.84,2.43H63.02H8.27c-2.27,0-4.34-0.93-5.84-2.43C0.93,86.88,0,84.82,0,82.54V8.27 c0-2.27,0.93-4.34,2.43-5.84C3.92,0.93,5.99,0,8.27,0h68.08c2.27,0,4.34,0.93,5.84,2.43c1.5,1.5,2.43,3.57,2.43,5.84v5.69h33.43v0 c0.38,0,0.75,0.16,1.01,0.46C119.54,14.99,119.48,15.83,118.92,16.32L118.92,16.32z M91.18,21.61c0-0.55,0.44-0.99,0.99-0.99 c0.55,0,0.99,0.44,0.99,0.99v32.15c0,0.55-0.44,0.99-0.99,0.99c-0.55,0-0.99-0.44-0.99-0.99V21.61L91.18,21.61z M97.79,21.66 c0-0.55,0.44-0.99,0.99-0.99c0.55,0,0.99,0.44,0.99,0.99v36.61c0,0.55-0.44,0.99-0.99,0.99c-0.55,0-0.99-0.44-0.99-0.99V21.66 L97.79,21.66z M104.4,21.68c0-0.55,0.44-0.99,0.99-0.99c0.55,0,0.99,0.44,0.99,0.99v19.56c0,0.55-0.44,0.99-0.99,0.99 c-0.55,0-0.99-0.44-0.99-0.99V21.68L104.4,21.68z M114.61,16.65H84.66V63h29.93c-0.25-0.47-0.2-1.07,0.17-1.5 c0.02-0.03,0.04-0.05,0.07-0.07v0l4.72-4.67l-4.58-4.81c-0.5-0.53-0.49-1.36,0.02-1.87l0,0l4.63-4.63L115,40.95 c-0.52-0.51-0.54-1.34-0.05-1.87l0,0l4.56-4.94l-4.49-4.68c-0.51-0.53-0.5-1.36,0.01-1.88l4.56-4.69l-4.71-4.71 C114.46,17.76,114.38,17.15,114.61,16.65L114.61,16.65z M27.31,34.14h-5.85l-0.84,2.75h-5.27l6.29-16.71h5.65l6.26,16.71h-5.41 L27.31,34.14L27.31,34.14z M26.22,30.52l-1.82-6l-1.83,6H26.22L26.22,30.52z M32.45,20.18h15.7v4.13h-5.27v12.58h-5.16V24.31h-5.27 V20.18L32.45,20.18z M50.46,20.18h6.81l2.59,10.16l2.6-10.16h6.78v16.71h-4.22V24.15l-3.26,12.74h-3.83l-3.25-12.74v12.74h-4.22 V20.18L50.46,20.18z M16.73,77.71v-8.73h12.52v8.73H16.73L16.73,77.71z M8.27,87.78h54.75h13.32c1.43,0,2.74-0.59,3.69-1.54 c0.95-0.95,1.54-2.26,1.54-3.69V8.27c0-1.43-0.59-2.75-1.54-3.7c-0.95-0.95-2.26-1.54-3.7-1.54H8.27c-1.44,0-2.75,0.59-3.7,1.54 c-0.95,0.95-1.54,2.26-1.54,3.7v74.28c0,1.44,0.59,2.75,1.54,3.7C5.52,87.19,6.83,87.78,8.27,87.78L8.27,87.78z M55.36,61.55v-8.73 h12.52v8.73H55.36L55.36,61.55z M36.04,61.55v-8.73h12.52v8.73H36.04L36.04,61.55z M16.73,61.55v-8.73h12.52v8.73H16.73 L16.73,61.55z M55.36,77.71v-8.73h12.52v8.73H55.36L55.36,77.71z M36.04,77.71v-8.73h12.52v8.73H36.04L36.04,77.71z"/></g></svg>