<?xml version="1.0" encoding="utf-8"?><svg version="1.1" id="Layer_1" xmlns="http://www.w3.org/2000/svg" xmlns:xlink="http://www.w3.org/1999/xlink" x="0px" y="0px" viewBox="0 0 122.88 101.9" style="enable-background:new 0 0 122.88 101.9" xml:space="preserve"><style type="text/css"><![CDATA[
	.st0{fill:#E74040;}
	.st1{fill:#FFFFFF;}
	.st2{fill-rule:evenodd;clip-rule:evenodd;fill:#262626;}
]]></style><g><path class="st2" d="M3.34,0h116.2c1.84,0,3.34,1.5,3.34,3.34v76.98c0,1.84-1.5,3.34-3.34,3.34H3.34C1.5,83.66,0,82.16,0,80.32 V3.34C0,1.5,1.5,0,3.34,0L3.34,0L3.34,0z M46.29,88.27h30.3c0.08,5.24,2.24,9.94,8.09,13.63H38.2 C42.88,98.51,46.31,94.39,46.29,88.27L46.29,88.27L46.29,88.27L46.29,88.27L46.29,88.27z M7.33,4.77h108.23 c1.63,0,2.95,1.33,2.95,2.95v60.24c0,1.62-1.33,2.95-2.95,2.95H7.33c-1.62,0-2.95-1.33-2.95-2.95V7.72 C4.37,6.09,5.71,4.77,7.33,4.77L7.33,4.77L7.33,4.77z"/><path d="M78.45,60.69c0.09-0.04,0.19-0.07,0.3-0.07L78.45,60.69L78.45,60.69L78.45,60.69L78.45,60.69z"/><path class="st2" d="M16.02,11.05h80.8c2.63,0,4.77,2.19,4.77,4.77v25.41l-9.17-5.07c-5.26-2.9-5.31-2.82-4.83,3.48l0.9,11.53 H16.02c-2.58,0-4.77-2.14-4.77-4.77V15.82C11.25,13.2,13.39,11.05,16.02,11.05L16.02,11.05z"/><path class="st1" d="M24.85,19.68h11.79c2.57,0,4.49,0.61,5.77,1.83c1.27,1.22,1.92,2.96,1.92,5.23c0,2.31-0.7,4.13-2.09,5.43 c-1.39,1.31-3.52,1.96-6.39,1.96h-3.88v8.48h-7.11V19.68L24.85,19.68z M31.96,29.49h1.75c1.37,0,2.34-0.24,2.9-0.72 c0.55-0.47,0.83-1.08,0.83-1.82c0-0.72-0.24-1.33-0.73-1.83c-0.48-0.5-1.39-0.75-2.72-0.75h-2.03V29.49L31.96,29.49z M58.32,38.83 h-8.03l-1.15,3.78H41.9l8.63-22.93h7.76l8.59,22.93h-7.42L58.32,38.83L58.32,38.83z M56.82,33.87l-2.5-8.25l-2.52,8.25H56.82 L56.82,33.87z M63.02,19.68h7.87l4.64,7.72l4.62-7.72h7.82l-8.9,13.33v9.6h-7.11v-9.6L63.02,19.68L63.02,19.68z"/><path class="st0" d="M104.42,64.93c0.03,0.01,0.07,0.01,0.1-0.01c0.01-0.01,0.02-0.01,0.04-0.02l3.5-2.02 c0.03-0.03,0.05-0.06,0.07-0.1c0-0.03,0-0.06-0.01-0.07l-4-6.85l0,0c-0.03-0.06-0.05-0.12-0.07-0.19 c-0.07-0.34,0.15-0.66,0.48-0.73l5.63-1c0,0,0.02,0,0.03,0c0.48-0.1,0.89-0.27,1.17-0.49c0.14-0.11,0.23-0.21,0.26-0.31 c0.02-0.06,0.01-0.14-0.04-0.23c-0.08-0.15-0.24-0.31-0.5-0.49L93.65,40.45c-1.26-0.89-1.34-0.4-1.22,1.13l1.64,20.62 c0.02,0.32,0.09,0.54,0.17,0.67c0.05,0.08,0.11,0.13,0.18,0.14c0.11,0.03,0.24,0,0.4-0.06c0.33-0.13,0.68-0.4,1.01-0.78l3.51-4.23 l0,0c0.05-0.04,0.1-0.08,0.15-0.13c0.3-0.17,0.68-0.07,0.85,0.23l4.03,6.83C104.38,64.91,104.39,64.92,104.42,64.93L104.42,64.93 L104.42,64.93L104.42,64.93z"/></g></svg>